<?xml version="1.0" standalone="no"?>
<!DOCTYPE svg PUBLIC "-//W3C//DTD SVG 20010904//EN"
 "http://www.w3.org/TR/2001/REC-SVG-20010904/DTD/svg10.dtd">
<svg version="1.0" xmlns="http://www.w3.org/2000/svg"
 width="200.000000pt" height="200.000000pt" viewBox="0 0 200.000000 200.000000"
 preserveAspectRatio="xMidYMid meet">

<g transform="translate(0.000000,200.000000) scale(0.100000,-0.100000)"
fill="#e28413" stroke="none">
<path d="M812 1300 c-118 -31 -242 -101 -338 -193 -111 -105 -111 -109 0 -214
153 -146 324 -214 530 -212 124 1 160 8 164 30 2 9 27 41 56 71 110 114 121
291 25 411 -16 20 -27 37 -23 37 19 0 140 -66 193 -105 66 -48 88 -55 98 -28
10 26 -67 86 -184 145 -108 54 -139 57 -131 13 3 -14 0 -26 -8 -29 -20 -8 -17
-23 14 -69 38 -56 52 -99 52 -161 0 -137 -121 -256 -260 -256 -103 0 -192 59
-238 158 -20 44 -23 65 -20 115 7 108 56 178 161 230 45 23 66 28 109 25 47
-3 53 -1 53 17 0 12 -9 22 -25 26 -47 13 -155 8 -228 -11z m-61 -107 c-86
-107 -86 -279 0 -385 16 -21 28 -38 25 -38 -3 0 -31 11 -62 25 -70 31 -165 98
-224 159 l-44 46 44 46 c58 59 153 128 221 158 72 33 75 32 40 -11z"/>
<path d="M910 1204 c-69 -30 -133 -111 -109 -140 13 -16 39 -19 39 -4 0 5 15
26 32 46 35 39 82 64 122 64 24 0 36 15 29 38 -6 17 -70 15 -113 -4z"/>
<path d="M1493 941 c-51 -49 -93 -96 -93 -104 0 -27 28 -26 67 2 44 32 153
145 153 158 0 10 -21 33 -29 33 -4 -1 -48 -41 -98 -89z"/>
<path d="M1243 764 c-3 -8 -1 -20 5 -26 16 -16 42 -2 42 22 0 24 -38 28 -47 4z"/>
</g>
</svg>
