<?xml version="1.0" encoding="UTF-8" standalone="no"?>
<!DOCTYPE svg PUBLIC "-//W3C//DTD SVG 1.1//EN" "http://www.w3.org/Graphics/SVG/1.1/DTD/svg11.dtd">
<svg version="1.1" xmlns="http://www.w3.org/2000/svg" xmlns:xlink="http://www.w3.org/1999/xlink" preserveAspectRatio="xMidYMid meet" viewBox="0 0 640 640" width="640" height="640"><defs><path d="M277.12 15.08C277.17 15.43 274.37 15.97 269.86 16.51C265.78 16.95 260.53 17.73 258.22 18.22C246.24 20.83 235.93 23.38 228.66 25.64C224.19 27.01 218.35 28.78 215.7 29.61C192.86 36.39 164.73 49.99 142.39 64.91C130.9 72.62 113.66 85.97 104.43 94.37C93.87 103.99 78.01 119.8 72.07 126.72C58.13 142.92 45.95 160.35 38.09 175.57C34.31 182.83 24.98 203.21 22.18 210.18C16.93 223.48 10.79 245.43 7.99 260.74C5.54 274.34 5 279.94 5 292.65C5 304.73 5.34 308.56 6.32 308.26C7.26 307.92 8.14 304.73 10.15 294.62C11.18 289.36 12.26 283.91 12.51 282.59C12.9 280.67 12.95 281.36 12.71 285.78C12.51 288.87 12.36 296.53 12.36 302.81C12.36 315.33 12.66 316.66 14.57 313.42C15.41 312.09 16 309.54 16.83 304.19C16.91 303.7 17.28 301.24 17.96 296.83C17.78 302.45 17.68 305.58 17.66 306.2C17.52 312.54 17.62 317.05 18.01 320.1C18.65 324.56 18.65 324.61 19.29 323.09C19.78 321.96 20.95 311.95 20.95 309.05C20.95 308.95 21.3 308.85 21.69 308.85C22.92 308.85 24.83 301.39 27.88 284.75C29.45 275.96 31.41 265.9 32.25 262.41C33.97 255.24 36.13 247.78 36.42 248.08C36.57 248.17 36.32 249.99 35.93 252.1C35.05 256.62 35.1 256.32 35.69 256.32C35.98 256.32 36.18 255.93 36.18 255.44C36.23 254.85 36.42 255 36.96 255.98C37.36 256.72 37.9 257.21 38.19 257.06C38.44 256.86 39.42 255.24 40.35 253.48C41.33 251.51 42.02 250.58 42.07 251.17C42.07 251.76 42.27 252.4 42.51 252.64C42.76 252.94 42.76 255.54 42.51 258.53C41.97 266.04 42.71 272.03 44.13 272.03C44.77 272.03 46.19 268.55 49.43 258.88C52.72 249.3 52.92 248.86 53.36 250.19C53.61 250.87 54.1 250.24 55.33 247.44C59.01 239.34 69.32 219.31 73.25 212.73C78.21 204.33 80.86 200.51 94.22 182.64C108.55 163.49 114.79 155.93 127.21 142.92C133.35 136.49 134.38 135.8 130.45 140.71C123.43 149.6 119.95 156.17 122.3 156.17C123.19 156.17 128.39 152.15 138.06 143.95C167.18 119.21 186.92 105.76 212.06 93.63C239.51 80.33 267.45 72.62 300.35 69.18C308.6 68.35 339.29 68.35 347.49 69.18C363.45 70.85 379.99 73.94 392.96 77.63C477.46 101.58 543.41 164.77 570.61 247.83C576.45 265.75 580.23 284.45 582.3 305.66C583.08 314.06 583.08 339.14 582.3 347.88C579.2 381.56 570.27 413.03 554.95 444.1C534.67 485.34 503.78 520.59 465.09 546.71C421.73 575.92 373.22 590.84 316.55 592.41C271.53 593.69 228.9 583.87 185.45 562.17C178.53 558.74 180.24 560.31 187.9 564.43C219.87 581.66 254.24 591.87 292.98 595.65C301.82 596.49 333.2 596.49 342.09 595.65C408.72 589.17 465.38 562.91 512.67 516.52C517.73 511.51 524.16 504.88 526.86 501.79C533.59 494.13 534.03 493.74 530.35 498.84C529.46 500.07 528.77 501.44 528.82 501.89C528.97 503.02 517.78 515.53 509.18 523.93C490.08 542.49 469.61 557.66 447.17 569.68C434.99 576.21 412.55 584.61 395.07 589.12C373.86 594.62 357.8 596.83 330.3 598.01C323.43 598.3 315.96 598.75 313.75 599.04C303.79 600.22 275.4 597.03 256.65 592.56C213.19 582.2 172.73 561.78 137.57 532.42C131.73 527.51 117.79 514.01 108.8 504.49C101.58 496.88 93.43 486.67 86.75 476.85C85.03 474.35 83.56 472.43 83.41 472.58C82.68 473.31 95.44 490.64 103.5 499.87C105.76 502.48 109.34 506.6 111.45 509.05C116.85 515.29 132.57 530.56 139.54 536.45C167.82 560.01 199 577.24 233.57 588.39C243.68 591.68 259 595.51 268.68 597.27C272.46 597.91 276.68 598.7 278.01 598.94C279.48 599.19 279.92 599.38 279.14 599.43C276.53 599.53 260.18 596.49 250.36 594.03C231.46 589.37 212.6 582.55 195.51 574.15C153.73 553.63 119.8 525.6 92.74 489.12C89.89 485.29 87.49 482.25 87.34 482.4C87.05 482.64 90.68 487.8 96.03 494.67C120.39 525.94 150.63 551.62 184.71 569.88C228.02 593.05 277.52 604.54 328.34 603.21C334.97 603.07 342.23 602.82 344.54 602.67C344.82 602.66 346.21 602.6 348.72 602.48C346.12 602.89 344.68 603.12 344.39 603.16C336.44 604.39 324.26 605.03 310.66 605.03C280.22 604.98 257.29 601.4 231.11 592.61C207.15 584.56 179.9 570.81 159.42 556.48C109.68 521.67 72.07 472.97 52.92 418.67C49.73 409.54 48.8 409.98 51.84 419.16C67.11 465.51 97.26 510.13 135.95 543.76C138.06 545.58 139.78 547.2 139.78 547.3C139.78 547.44 138.51 546.51 136.98 545.19C119.65 530.65 104.48 514.65 90.93 496.63C79.83 481.91 72.12 469.14 61.37 447.79C57.19 439.54 53.46 432.47 53.07 432.08C52.48 431.49 52.38 431.49 52.38 432.32C52.38 433.5 53.31 436.59 55.03 441.11C55.72 442.93 56.21 444.64 56.06 444.89C55.23 446.21 70.79 474.05 80.42 488.39C97.75 514.21 121.27 538.9 146.9 558.24C154.07 563.6 167.48 572.48 175.38 577.1C183.44 581.76 184.42 582.5 178.82 579.55C165.46 572.63 147.2 560.16 133.15 548.43C111.11 530.07 92.6 509.54 77.03 486.18C71.33 477.73 65.49 467.91 65.83 467.57C66.23 467.18 63.18 461.38 61.96 460.3C61.42 459.76 60.19 457.56 59.3 455.4C58.42 453.24 56.51 449.26 55.08 446.56C49.83 436.74 42.12 415.34 37.9 398.99C32.49 377.98 29.79 360.2 28.81 338.55C28.12 324.22 27.98 323.14 27.93 331.93C27.68 353.23 31.86 381.22 38.88 405.62C46.98 433.65 59.5 460.99 75.26 484.95C77.82 488.83 79.78 492.26 79.63 492.51C79.04 493.39 86.02 502.92 98.05 517.69C98.88 518.73 98.24 518.38 96.08 516.57C92.45 513.57 91.81 513.91 94.07 517.65C94.17 517.82 94.68 518.67 95.59 520.2C94.24 518.73 93.48 517.91 93.33 517.74C89.6 513.77 79.98 501.59 74.87 494.42C59.01 472.14 45.31 446.07 36.32 421.03C34.95 417.25 33.57 413.47 33.28 412.68C33.24 412.59 33.06 412.1 32.74 411.21C32.86 412.24 32.92 412.82 32.94 412.93C33.03 413.86 34.51 418.53 36.18 423.24C51.25 465.41 75.31 503.56 106.88 535.22C116.9 545.24 122.25 550.05 133.4 558.98C145.48 568.65 151.37 572.97 161.39 579.6C203.76 607.73 251.25 623.83 302.41 627.47C313.02 628.2 334.62 628.05 345.57 627.17C382.45 624.23 418.88 614.31 452.03 598.21C480.36 584.46 509.13 564.92 530 545.28C532.8 542.68 535.16 540.57 535.26 540.57C536.09 540.57 533.44 544.01 530.25 547C510.66 565.71 481.83 585.49 455.86 598.01C414.41 618.04 371.55 628.01 324.41 628.69C276.53 629.33 231.11 619.32 187.71 598.5C143.47 577.29 105.17 545.87 75.31 506.21C42.22 462.27 22.18 413.08 15.55 359.42C14.13 347.73 13.05 340.76 12.61 340.52C11.13 339.63 11.82 355.88 13.83 369.38C21.45 421.18 42.12 470.07 73.69 511.12C104.92 551.72 146.71 584.46 193.8 605.28C248.2 629.33 305.75 637.04 366.15 628.4C401.55 623.34 439.85 610.33 471.42 592.61C510.75 570.62 542.52 542.58 570.32 505.47C591.48 477.24 608.66 441.89 618.78 405.81C626.39 378.61 629.73 354.12 630.52 319.65C630.56 316.02 630.61 320.88 630.52 330.45C630.47 342.09 630.12 350.43 629.63 355.49C624.33 406.7 609.25 450.93 582.64 493.39C579.69 498.11 577.34 502.03 577.48 502.13C577.83 502.52 581.07 498.16 585.05 491.97C609.16 454.22 624.53 411.31 630.52 365.31C632.87 347.15 633.71 319.65 632.33 303.21C629.39 267.03 621.68 235.02 608.71 205.02C607.34 201.78 605.52 197.17 604.69 194.76C597.13 172.28 578.32 140.96 557.65 116.41C550.43 107.87 535.11 92.5 526.96 85.78C512.87 74.09 495.93 62.21 485.96 57.06C465.53 46.55 457.33 42.72 444.22 37.62C440.59 36.19 434.06 33.59 429.73 31.87C406.21 22.3 379.65 16.06 349.45 13.02C338.16 11.89 307.03 11.65 295.68 12.58C283.51 13.61 277.03 14.49 277.12 15.08ZM115.23 92.8C108.26 98.83 95.54 111.21 88.72 118.62C84.25 123.48 84.35 123.09 89.16 117.15C101.97 101.34 126.87 80.38 150.83 65.25C167.43 54.75 190.11 43.11 203.86 38.06C208.28 36.44 211.52 35.75 207.79 37.22C174.16 50.58 141.21 70.36 115.23 92.8ZM162.71 68.94C143.61 80.33 120.58 98.74 106.15 114.05C100.89 119.65 85.92 134.08 87.93 131.63C88.67 130.7 92.25 126.72 95.84 122.79C115.04 101.88 137.28 83.62 162.08 68.45C165.32 66.48 168.07 64.86 168.16 64.86C168.31 64.86 168.12 65.16 167.82 65.55C167.48 65.94 165.22 67.46 162.71 68.94ZM59.25 169.68C56.75 173.75 52.53 182.14 48.99 190.1C47.47 193.49 45.75 196.73 45.21 197.31C43.3 199.38 32.4 224.46 29.3 233.99C28.27 237.28 27.34 239.04 27.34 237.82C27.34 235.95 34.21 217.1 38.39 207.43C43.35 195.94 51.35 180.87 59.06 168.3C60.29 166.34 61.22 165.4 61.22 166.24C61.22 166.34 60.34 167.91 59.25 169.68ZM26.7 252.4C24.88 259.76 22.67 271.84 21 283.23C20.46 286.81 19.83 290.05 19.58 290.35C19.33 290.69 18.99 291.38 18.84 291.92C18.25 293.93 19.09 287.2 20.76 276.4C22.58 264.38 24.88 254.36 28.76 241.55C32.4 229.37 40.99 206.74 41.43 208.07C41.53 208.36 40.79 210.57 39.81 212.97C35.78 222.6 29.11 242.68 26.7 252.4ZM13.15 279.2C13.1 278.66 13.25 278.37 13.39 278.56C13.54 278.71 13.59 279.15 13.44 279.5C13.29 279.89 13.15 279.74 13.15 279.2ZM19.14 298.64C18.99 298.3 19.04 296.73 19.29 295.21C19.53 293.44 19.73 292.85 19.87 293.59C19.97 294.22 19.92 295.79 19.73 297.02C19.53 298.25 19.24 298.99 19.14 298.64ZM227.19 601.45C244.57 607.19 264.36 611.56 284.78 614.21C291.66 615.09 294.46 615.63 300.1 617.11C302.9 617.84 296.03 617.4 285.81 616.17C219.67 608.17 158.84 578.52 113.51 532.18C113.12 531.77 111.16 529.76 107.62 526.14C111.63 529.97 113.85 532.09 114.3 532.52C117.93 536.05 123.58 541.21 126.82 544.06C156.09 569.73 190.21 589.22 227.19 601.45ZM281.35 599.83C280.86 599.68 281.15 599.58 281.94 599.58C282.77 599.58 283.11 599.68 282.82 599.83C282.48 599.92 281.79 599.92 281.35 599.83Z" id="aPfOrErdQ"></path><path d="M495.53 581.56C456.35 607.53 412.45 624.18 367.13 630.36C357.31 631.74 355.93 631.98 356.72 632.23C357.7 632.62 372.97 630.46 382.6 628.64C429.19 619.66 472.8 600.32 511.25 571.45C528.38 558.64 544.49 543.66 558.53 527.61C564.82 520.39 572.08 511.16 571.74 510.82C571.64 510.67 570.32 512.1 568.89 513.91C547.88 540.62 523.67 562.96 495.53 581.56Z" id="bh1zc02kS"></path><path d="M349.4 204.31C363.03 204.31 369.85 209.41 369.85 219.6C369.85 219.6 369.85 219.6 369.85 219.6C369.85 229.79 363.03 234.89 349.4 234.89C230.38 234.89 164.26 234.89 151.03 234.89C137.4 234.89 130.58 229.79 130.58 219.6C130.58 219.6 130.58 219.6 130.58 219.6C130.58 209.41 137.4 204.31 151.03 204.31C270.05 204.31 336.18 204.31 349.4 204.31Z" id="b9eKdvzpI"></path><path d="M426.09 204.31C439.04 204.31 445.52 209.41 445.52 219.6C445.52 219.6 445.52 219.6 445.52 219.6C445.52 229.79 439.04 234.89 426.09 234.89C426.09 234.89 426.09 234.89 426.09 234.89C413.14 234.89 406.66 229.79 406.66 219.6C406.66 219.6 406.66 219.6 406.66 219.6C406.66 209.41 413.14 204.31 426.09 204.31C426.09 204.31 426.09 204.31 426.09 204.31Z" id="a2ndNiHp38"></path><path d="M508.91 303.1C522.55 303.1 529.36 308.19 529.36 318.39C529.36 318.39 529.36 318.39 529.36 318.39C529.36 328.58 522.55 333.67 508.91 333.67C294.19 333.67 174.89 333.67 151.03 333.67C137.4 333.67 130.58 328.58 130.58 318.39C130.58 318.39 130.58 318.39 130.58 318.39C130.58 308.19 137.4 303.1 151.03 303.1C365.76 303.1 485.05 303.1 508.91 303.1Z" id="b3EvR7Uwv"></path><path d="M445.52 408.94C459.15 408.94 465.97 414.03 465.97 424.23C465.97 424.23 465.97 424.23 465.97 424.23C465.97 434.42 459.15 439.51 445.52 439.51C268.83 439.51 170.67 439.51 151.03 439.51C137.4 439.51 130.58 434.42 130.58 424.23C130.58 424.23 130.58 424.23 130.58 424.23C130.58 414.03 137.4 408.94 151.03 408.94C327.72 408.94 425.89 408.94 445.52 408.94Z" id="cDMmnH0wF"></path></defs><g><g><g><use xlink:href="#aPfOrErdQ" opacity="1" fill="#000000" fill-opacity="1"></use><g><use xlink:href="#aPfOrErdQ" opacity="1" fill-opacity="0" stroke="#000000" stroke-width="1" stroke-opacity="0"></use></g></g><g><use xlink:href="#bh1zc02kS" opacity="1" fill="#000000" fill-opacity="1"></use><g><use xlink:href="#bh1zc02kS" opacity="1" fill-opacity="0" stroke="#000000" stroke-width="1" stroke-opacity="0"></use></g></g><g><use xlink:href="#b9eKdvzpI" opacity="1" fill="#000000" fill-opacity="1"></use><g><use xlink:href="#b9eKdvzpI" opacity="1" fill-opacity="0" stroke="#000000" stroke-width="9" stroke-opacity="1"></use></g></g><g><use xlink:href="#a2ndNiHp38" opacity="1" fill="#000000" fill-opacity="1"></use><g><use xlink:href="#a2ndNiHp38" opacity="1" fill-opacity="0" stroke="#000000" stroke-width="9" stroke-opacity="1"></use></g></g><g><use xlink:href="#b3EvR7Uwv" opacity="1" fill="#000000" fill-opacity="1"></use><g><use xlink:href="#b3EvR7Uwv" opacity="1" fill-opacity="0" stroke="#000000" stroke-width="9" stroke-opacity="1"></use></g></g><g><use xlink:href="#cDMmnH0wF" opacity="1" fill="#000000" fill-opacity="1"></use><g><use xlink:href="#cDMmnH0wF" opacity="1" fill-opacity="0" stroke="#000000" stroke-width="9" stroke-opacity="1"></use></g></g></g></g></svg>